<svg xmlns="http://www.w3.org/2000/svg" viewBox="0 0 19.316 18.555">
  <defs>
    <style>
      .cls-1 {
        fill: #ebe3d0;
      }
    </style>
  </defs>
  <g id="Group_587" data-name="Group 587" transform="translate(0)">
    <g id="Group_8" data-name="Group 8" transform="translate(10.162 9.82)">
      <path id="Path_235" data-name="Path 235" fill="#d6d2c8" d="M79.6,91.775,82.074,90.5l1.58,1.275Z" transform="translate(-74.614 -83.097)"/>
      <path id="Path_236" data-name="Path 236" fill="#d6d2c8" d="M84.557,66.464l1.656-.3.609-1.408L84.1,63.8Z" transform="translate(-78.258 -61.478)"/>
      <path id="Path_237" data-name="Path 237" fill="#d6d2c8" d="M89.436,55.379v-.761L88.561,53.4,87,54.39Z" transform="translate(-80.606 -53.057)"/>
      <path id="Path_238" data-name="Path 238" fill="#d6d2c8" d="M69.479,52.552,67.1,51.6h4.415Z" transform="translate(-64.493 -51.6)"/>
      <path id="Path_239" data-name="Path 239" fill="#d6d2c8" d="M68.731,59.721l-.476-2.208L65.8,56.6Z" transform="translate(-63.44 -55.648)"/>
      <path id="Path_240" data-name="Path 240" fill="#d6d2c8" d="M64.611,65.169,61.3,62.2l.856,2.455Z" transform="translate(-59.797 -60.183)"/>
      <path id="Path_241" data-name="Path 241" fill="#d6d2c8" d="M69.479,82.722l.3-1.618L67.1,80.4l1.218,2.569Z" transform="translate(-64.493 -74.919)"/>
      <path id="Path_242" data-name="Path 242" fill="#d6d2c8" d="M97.128,80.008l-.628-.419.628-1.789Z" transform="translate(-88.298 -72.814)"/>
      <path id="Path_243" data-name="Path 243" fill="#d6d2c8" d="M56,85.56l1.865.628.8-.3-1.1-2.284Z" transform="translate(-55.505 -77.51)"/>
      <path id="Path_244" data-name="Path 244" fill="#d6d2c8" d="M53.4,66.958V62.2l1.5,2.969Z" transform="translate(-53.4 -60.183)"/>
      <path id="Path_245" data-name="Path 245" fill="#d6d2c8" d="M84.1,84.513l.8-.228-.4-.685Z" transform="translate(-78.258 -77.51)"/>
      <path id="Path_246" data-name="Path 246" fill="#d6d2c8" d="M90.3,81.009h.59V80.4l-.59.609" transform="translate(-83.278 -74.919)"/>
    </g>
    <g id="Group_9" data-name="Group 9" transform="translate(0 9.858)">
      <path id="Path_247" data-name="Path 247" fill="#d6d2c8" d="M4.054,92.075,1.6,90.8,0,92.075Z" transform="translate(0 -83.378)"/>
      <path id="Path_248" data-name="Path 248" fill="#d6d2c8" d="M4.784,66.664l-1.675-.285L2.5,64.952,5.221,64Z" transform="translate(-2.024 -61.678)"/>
      <path id="Path_249" data-name="Path 249" fill="#d6d2c8" d="M1.1,55.66V54.9l.875-1.2,1.561.971Z" transform="translate(-0.891 -53.338)"/>
      <path id="Path_250" data-name="Path 250" fill="#d6d2c8" d="M12.717,52.771,15.1,51.8H10.7Z" transform="translate(-8.664 -51.8)"/>
      <path id="Path_251" data-name="Path 251" fill="#d6d2c8" d="M19.8,60.021l.457-2.227,2.455-.894Z" transform="translate(-16.032 -55.929)"/>
      <path id="Path_252" data-name="Path 252" fill="#d6d2c8" d="M22.2,65.369,25.511,62.4l-.856,2.474Z" transform="translate(-17.975 -60.383)"/>
      <path id="Path_253" data-name="Path 253" fill="#d6d2c8" d="M20.085,83.022,19.8,81.4l2.664-.7-1.218,2.55Z" transform="translate(-16.032 -75.2)"/>
      <path id="Path_254" data-name="Path 254" fill="#d6d2c8" d="M1.1,80.227l.628-.438L1.1,78Z" transform="translate(-0.891 -73.014)"/>
      <path id="Path_255" data-name="Path 255" fill="#d6d2c8" d="M33.564,85.841l-1.865.647-.8-.324L32,83.9Z" transform="translate(-25.02 -77.791)"/>
      <path id="Path_256" data-name="Path 256" fill="#d6d2c8" d="M41.122,67.158V62.4L39.6,65.369Z" transform="translate(-32.064 -60.383)"/>
      <path id="Path_257" data-name="Path 257" fill="#d6d2c8" d="M13.4,84.794l-.8-.228L13,83.9Z" transform="translate(-10.202 -77.791)"/>
      <path id="Path_258" data-name="Path 258" fill="#d6d2c8" d="M8.109,81.309H7.5V80.7l.609.609" transform="translate(-6.073 -75.2)"/>
    </g>
    <g id="Group_10" data-name="Group 10" transform="translate(0.285)">
      <path id="Path_259" data-name="Path 259" fill="#d6d2c8" d="M5.573,0,3.1,1.275,1.5,0Z" transform="translate(-1.5)"/>
      <path id="Path_260" data-name="Path 260" fill="#d6d2c8" d="M6.365,19.5l-1.656.285L4.1,21.213l2.721.952Z" transform="translate(-3.605 -15.789)"/>
      <path id="Path_261" data-name="Path 261" fill="#d6d2c8" d="M2.7,33.5v.761l.875,1.2,1.561-.971Z" transform="translate(-2.472 -27.125)"/>
      <path id="Path_262" data-name="Path 262" fill="#d6d2c8" d="M14.236,40.6l2.36.971H12.2Z" transform="translate(-10.164 -32.874)"/>
      <path id="Path_263" data-name="Path 263" fill="#d6d2c8" d="M21.3,24.2l.476,2.227,2.455.894Z" transform="translate(-17.532 -19.595)"/>
      <path id="Path_264" data-name="Path 264" fill="#d6d2c8" d="M23.8,19.5l3.311,2.969-.856-2.474Z" transform="translate(-19.556 -15.789)"/>
      <path id="Path_265" data-name="Path 265" fill="#d6d2c8" d="M21.6,3.628l-.3,1.618,2.664.7-1.2-2.55Z" transform="translate(-17.532 -2.753)"/>
      <path id="Path_266" data-name="Path 266" fill="#d6d2c8" d="M2.7,7.8l.609.438L2.7,10.027Z" transform="translate(-2.472 -6.316)"/>
      <path id="Path_267" data-name="Path 267" fill="#d6d2c8" d="M35.164.647,33.3,0l-.8.324,1.1,2.265Z" transform="translate(-26.601)"/>
      <path id="Path_268" data-name="Path 268" fill="#d6d2c8" d="M42.7,10.1v4.758l-1.5-2.969Z" transform="translate(-33.645 -8.178)"/>
      <path id="Path_269" data-name="Path 269" fill="#d6d2c8" d="M15,8.9l-.8.228.4.666Z" transform="translate(-11.783 -7.206)"/>
      <path id="Path_270" data-name="Path 270" fill="#d6d2c8" d="M9.69,13.6H9.1v.609l.59-.609" transform="translate(-7.654 -11.012)"/>
    </g>
    <g id="Group_11" data-name="Group 11" transform="translate(10.258)">
      <path id="Path_271" data-name="Path 271" fill="#d6d2c8" d="M80.1,0l2.474,1.275L84.173,0Z" transform="translate(-75.114)"/>
      <path id="Path_272" data-name="Path 272" fill="#d6d2c8" d="M85.057,19.5l1.675.285.59,1.427-2.721.952Z" transform="translate(-78.758 -15.789)"/>
      <path id="Path_273" data-name="Path 273" fill="#d6d2c8" d="M89.955,33.5v.761l-.875,1.2L87.5,34.49Z" transform="translate(-81.106 -27.125)"/>
      <path id="Path_274" data-name="Path 274" fill="#d6d2c8" d="M70.06,40.6l-2.36.971h4.4Z" transform="translate(-65.074 -32.874)"/>
      <path id="Path_275" data-name="Path 275" fill="#d6d2c8" d="M69.312,24.2l-.476,2.227-2.436.894Z" transform="translate(-64.021 -19.595)"/>
      <path id="Path_276" data-name="Path 276" fill="#d6d2c8" d="M65.192,19.5,61.9,22.469l.856-2.474Z" transform="translate(-60.378 -15.789)"/>
      <path id="Path_277" data-name="Path 277" fill="#d6d2c8" d="M70.06,3.628l.3,1.618-2.664.7L68.9,3.4Z" transform="translate(-65.074 -2.753)"/>
      <path id="Path_278" data-name="Path 278" fill="#d6d2c8" d="M97.728,7.8l-.628.438.628,1.789Z" transform="translate(-88.879 -6.316)"/>
      <path id="Path_279" data-name="Path 279" fill="#d6d2c8" d="M56.6.647,58.465,0l.8.324-1.1,2.265Z" transform="translate(-56.086)"/>
      <path id="Path_280" data-name="Path 280" fill="#d6d2c8" d="M53.9,10.1v4.758l1.522-2.969Z" transform="translate(-53.9 -8.178)"/>
      <path id="Path_281" data-name="Path 281" fill="#d6d2c8" d="M84.6,8.9l.818.228L85,9.794Z" transform="translate(-78.758 -7.206)"/>
      <path id="Path_282" data-name="Path 282" fill="#d6d2c8" d="M90.8,13.6h.609v.609L90.8,13.6" transform="translate(-83.778 -11.012)"/>
    </g>
  </g>
</svg>
