<?xml version="1.0" encoding="iso-8859-1"?>
<!-- Generator: Adobe Illustrator 19.0.0, SVG Export Plug-In . SVG Version: 6.00 Build 0)  -->
<svg version="1.1" id="Layer_1" xmlns="http://www.w3.org/2000/svg" xmlns:xlink="http://www.w3.org/1999/xlink" x="0px" y="0px"
	 viewBox="0 0 511.999 511.999" style="enable-background:new 0 0 511.999 511.999;" xml:space="preserve">
<g>
	<g>
		<path d="M498.041,15.396c-7.872,0-479.434,0-484.082,0C6.249,15.396,0,21.647,0,29.356v298.153
			c0,12.297,14.716,18.482,23.542,10.151l65.151-61.499c3.666-3.461,5.182-8.629,3.964-13.52L38.093,43.315
			c11.635,0,422.771,0,435.814,0L442.55,169.358l20.878,31.718l20.653-83.017l-0.251,191.737l13.468,31.637
			c0.248,0.013,0.496,0.035,0.745,0.035c7.688,0,13.956-6.239,13.956-13.959V29.356C512,21.646,505.75,15.396,498.041,15.396z
			 M63.594,261.459l-35.675,33.677V118.058L63.594,261.459z"/>
	</g>
</g>
<g>
	<g>
		<path d="M490.888,369.137l-38.123-89.549c-3.475-8.163-11.452-13.495-20.323-13.585l-50.331-0.511
			c-4.51-10.112-37.097-83.16-41.804-93.713l42.561-1.568l37.504,56.719c5.106,7.72,15.499,9.835,23.212,4.733
			c7.717-5.102,9.836-15.495,4.734-23.211l-42.693-64.565c-3.264-4.935-8.852-7.704-14.589-7.501l-58.677,2.162
			c-4.469,0.164-8.868,1.169-12.965,2.963l-83.256,36.423l-55.487-5.839l-14.58-32.685c-6.474,10.185-15.919,17.709-26.895,21.942
			l14.816,33.213c2.436,5.462,7.598,9.21,13.544,9.836l82.731,8.707l120.286,270.194c5.1,11.527,18.762,16.597,30.2,11.043
			c10.895-5.29,15.334-18.533,10.433-29.608l-63.261-142.953l0.089-0.04l26.135-11.659l43.239,0.44l32.401,76.11
			c4.834,11.357,17.958,16.629,29.299,11.802C490.436,393.604,495.72,380.486,490.888,369.137z"/>
	</g>
</g>
<g>
	<g>
		<circle cx="258.301" cy="109.528" r="38.763"/>
	</g>
</g>
<g>
	<g>
		<path d="M154.67,93.732c-6.434-14.422-20.589-22.981-35.422-22.981c-27.868,0-46.854,28.842-35.378,54.564
			c6.434,14.422,20.589,22.981,35.422,22.981C147.16,148.296,166.145,119.455,154.67,93.732z"/>
	</g>
</g>
<g>
</g>
<g>
</g>
<g>
</g>
<g>
</g>
<g>
</g>
<g>
</g>
<g>
</g>
<g>
</g>
<g>
</g>
<g>
</g>
<g>
</g>
<g>
</g>
<g>
</g>
<g>
</g>
<g>
</g>
</svg>
