<svg id="Group_585" data-name="Group 585" xmlns="http://www.w3.org/2000/svg" xmlns:xlink="http://www.w3.org/1999/xlink" viewBox="0 0 22.975 18.667">
  <defs>
    <style>
      .cls-2 {
        clip-path: url(#clip-path);
      }
    </style>
    <clipPath id="clip-path">
      <rect id="Rectangle_1371" data-name="Rectangle 1371" fill="#d6d2c8" width="22.975" height="18.667"/>
    </clipPath>
  </defs>
  <g id="Group_584" data-name="Group 584">
    <g id="Group_583" data-name="Group 583" class="cls-2">
      <path id="Path_1852" data-name="Path 1852" fill="#d6d2c8" d="M22.571,10.844,17.257,5.578V2.084a.766.766,0,1,0-1.532,0V4L11.992.265a.811.811,0,0,0-1.1,0L.265,10.844a.811.811,0,0,0,0,1.1.811.811,0,0,0,1.1,0L11.418,1.893,21.47,11.944a.793.793,0,0,0,.574.239.994.994,0,0,0,.574-.239.869.869,0,0,0-.048-1.1Zm0,0" transform="translate(-0.026 -0.026)"/>
    </g>
  </g>
  <path id="Path_1853" data-name="Path 1853" fill="#d6d2c8" d="M22.693,15.168,14.317,6.839a.793.793,0,0,0-.574-.239.883.883,0,0,0-.574.239L4.887,15.168a.926.926,0,0,0-.239.431c0,.1-.048.239-.048.383V20.05a1.92,1.92,0,0,0,1.915,1.915h4.069a1.883,1.883,0,0,0,1.388-.622A1.849,1.849,0,0,0,12.5,20.05V17.082a1.4,1.4,0,0,1,1.292-1.388,1.4,1.4,0,0,1,1.292,1.388V20.05a1.849,1.849,0,0,0,.527,1.292A1.966,1.966,0,0,0,17,21.965h4.069A1.92,1.92,0,0,0,22.98,20.05V15.982a1.054,1.054,0,0,0-.048-.383.926.926,0,0,0-.239-.431Zm0,0" transform="translate(-2.398 -3.441)"/>
</svg>
