<svg xmlns="http://www.w3.org/2000/svg" xmlns:xlink="http://www.w3.org/1999/xlink" viewBox="0 0 43 43"><defs><style>.a{fill:#fff;stroke:#707070;}.b{clip-path:url(#a);}.c{fill:#d6d2c8;}.d,.f{fill:none;}.d{stroke:#d6d2c8;}.e{stroke:none;}</style><clipPath id="a"><circle class="a" cx="18.5" cy="18.5" r="18.5" transform="translate(4311 3220)"/></clipPath></defs><g transform="translate(-4308 -3239)"><g class="b" transform="translate(0 25)"><g transform="translate(5 89)"><path class="c" d="M26.853,28.718l-7.2-3.111a1.473,1.473,0,0,1-.655-.737h5.731a7.942,7.942,0,0,0,2.947-.491,2.158,2.158,0,0,0,.819-3.193c-1.392-1.965-4.585-7.123-4.748-12.362,0-.082-.327-8.842-8.924-8.924a9.21,9.21,0,0,0-8.6,5.567A16.128,16.128,0,0,0,5.24,9.806C4.912,14.8,2.374,19.549,1.228,21.432a1.929,1.929,0,0,0-.246,1.637,2.041,2.041,0,0,0,.9,1.228,4.76,4.76,0,0,0,2.374.573H9.5c-.327.246-.409.327-.491.327l-6.058,3.52A5.915,5.915,0,0,0,0,33.876v1.474c0,3.111,9.824,3.93,15.064,3.93s15.064-.819,15.064-3.93v-1.31a5.812,5.812,0,0,0-3.275-5.321Zm0,0" transform="translate(4310.336 3133.461)"/></g></g><g class="d" transform="translate(4308 3239)"><circle class="e" cx="21.5" cy="21.5" r="21.5"/><circle class="f" cx="21.5" cy="21.5" r="21"/></g></g></svg>