<svg xmlns="http://www.w3.org/2000/svg" viewBox="0 0 9.921 12.967">
  <defs>
    <style>
      .cls-1 {
        fill: #d6d2c8;
      }
    </style>
  </defs>
  <g id="MY_ACCOUNT" data-name="MY ACCOUNT" transform="translate(-4319.439 -3162.566)">
    <path id="Path_2102" data-name="Path 2102" fill="#d6d2c8" d="M8.842,9.39,6.47,8.365a.485.485,0,0,1-.216-.243H8.142a2.615,2.615,0,0,0,.971-.162.711.711,0,0,0,.27-1.051A8.263,8.263,0,0,1,7.818,2.839,2.972,2.972,0,0,0,4.88-.1,3.033,3.033,0,0,0,2.049,1.733a5.311,5.311,0,0,0-.324,1.429A9.151,9.151,0,0,1,.4,6.99a.635.635,0,0,0-.081.539.672.672,0,0,0,.3.4,1.568,1.568,0,0,0,.782.189H3.127c-.108.081-.135.108-.162.108L.971,9.39A1.948,1.948,0,0,0,0,11.088v.485c0,1.024,3.235,1.294,4.96,1.294s4.96-.27,4.96-1.294v-.431A1.914,1.914,0,0,0,8.842,9.39Zm0,0" transform="translate(4319.439 3162.667)"/>
  </g>
</svg>
