<svg xmlns="http://www.w3.org/2000/svg" viewBox="0 0 30.255 17.026">
  <defs>
    <style>
      .cls-1 {
        fill: #fff;
        stroke: #707070;
        stroke-width: 0.2px;
      }

      .cls-2 {
        fill: #707070;
        font-size: 11px;
        font-family: HelveticaNeue, Helvetica Neue;
      }

      .cls-3 {
        fill: #d6d2c8;
      }

      .cls-4 {
        stroke: none;
      }

      .cls-5 {
        fill: none;
      }
    </style>
  </defs>
  <g id="change_password" data-name="change password" transform="translate(-72.336 -816.364)">
    <g id="Group_756" data-name="Group 756" transform="translate(-4275.59 -2426.638)">
      <g id="Rectangle_1934" data-name="Rectangle 1934" fill="#d6d2c8" transform="translate(4347.926 3246.028)">
        <rect class="cls-4" width="30.255" height="10.085" rx="3"/>
        <rect class="cls-5" x="0.1" y="0.1" width="30.055" height="9.885" rx="2.9"/>
      </g>
      <text id="_" data-name="****" fill="#707070" transform="translate(4350.489 3258.028)"><tspan x="0" y="0">****</tspan></text>
    </g>
    <path id="Path_2115" data-name="Path 2115" fill="#d6d2c8" d="M13.234,5.229H7.209V3.477A3.531,3.531,0,0,0,3.6,0,3.531,3.531,0,0,0,0,3.477v2.31a.585.585,0,0,0,.605.584.585.585,0,0,0,.605-.584V3.477A2.362,2.362,0,0,1,3.6,1.168,2.362,2.362,0,0,1,6,3.477V5.229A1.186,1.186,0,0,0,4.788,6.4v5.787A1.186,1.186,0,0,0,6,13.351h7.209a1.186,1.186,0,0,0,1.21-1.168V6.371A1.159,1.159,0,0,0,13.234,5.229Zm0,6.955H6V6.371h7.209v5.813ZM9.024,9.7v.736a.605.605,0,0,0,1.21,0V9.7a1.117,1.117,0,0,0,.605-.99,1.211,1.211,0,0,0-2.42,0A1.117,1.117,0,0,0,9.024,9.7Z" transform="translate(88.173 816.364)"/>
  </g>
</svg>
