<svg xmlns="http://www.w3.org/2000/svg" viewBox="0 0 13.815 14.323">
  <defs>
    <style>
      .cls-1 {
        fill: #deddd9;
      }

      .cls-2 {
        fill: #d6d2c8;
      }
    </style>
  </defs>
  <g id="profile" transform="translate(0.032 0.015)">
    <path id="Path_2107" data-name="Path 2107" fill="#d6d2c8" d="M10.3.645C10.169.58,6.925-.764,4.107.58A6.743,6.743,0,0,0,.667,5.167C-.218,8.312-.251,10.278.5,11.589c.786,1.311,2.392,1.769,4.227,2.163h.033v.229a.328.328,0,0,0,.655,0V13a3.469,3.469,0,0,0,1.376.295A3.925,3.925,0,0,0,8.76,12.7v1.278a.328.328,0,1,0,.655,0v-.262h.033c3.9-.983,4.259-5.537,4.292-5.734C14.232,2.185,10.332.645,10.3.645Zm.2,9.371A4.675,4.675,0,0,1,6.827,12.6c-2.228,0-4.161-2.588-4.62-5.111a3.987,3.987,0,0,0,.688.033A9.742,9.742,0,0,0,9.775,4.61a3.433,3.433,0,0,0,1.769,2.2,6.524,6.524,0,0,1-.524,2.163.12.12,0,0,0-.1.033" transform="translate(0 0)"/>
    <path id="Path_2108" data-name="Path 2108" fill="#d6d2c8" d="M15.359,9.378c0,.033-.36,4.128-3.571,5.079V13.7A7.943,7.943,0,0,0,14.54,7.936a.328.328,0,0,0-.328-.328.2.2,0,0,0-.131.033,3.169,3.169,0,0,1-1.474-2.294V5.315c0-.033,0-.033-.033-.066,0-.033-.033-.033-.033-.066a.032.032,0,0,0-.033-.033h0c-.033,0-.033-.033-.066-.033s-.033-.033-.066-.033h-.164c-.033,0-.033,0-.066.033-.033,0-.033.033-.066.033a.032.032,0,0,0-.033.033,9.252,9.252,0,0,1-7.7,3.047h0A12.279,12.279,0,0,0,8.9,5.839a.4.4,0,0,0,.033-.491.4.4,0,0,0-.491-.033A12.779,12.779,0,0,1,3.5,7.74c-.033,0-.066.033-.1.033.066-.328.164-.655.262-1.016a6.023,6.023,0,0,1,3.08-4.128c2.523-1.212,5.57.066,5.636.066C12.41,2.726,15.818,4.07,15.359,9.378Z" transform="translate(-2.307 -1.426)"/>
    <path id="Path_2109" data-name="Path 2109" fill="#d6d2c8" d="M6.239,27.093c-1.671-.36-3.014-.754-3.637-1.835-.524-.885-.59-2.294-.131-4.358a.344.344,0,0,0,.295.164h.066a.327.327,0,0,0,.131-.033v.1a7.831,7.831,0,0,0,3.309,5.6v.36Z" transform="translate(-1.476 -14.062)"/>
  </g>
</svg>
