<svg height="511pt" viewBox="-64 0 511 511.98991" width="511pt" xmlns="http://www.w3.org/2000/svg"><path d="m361.882812 334.640625-88.257812-8.445313-42.65625-63.167968-32.292969-132.191406 57.222657 35.554687 12.773437 65.464844c2.160156 11.078125 12.894531 18.273437 23.933594 16.117187 11.058593-2.15625 18.273437-12.871094 16.117187-23.933594l-14.476562-74.191406c-1.085938-5.566406-4.441406-10.429687-9.257813-13.421875l-81.175781-50.4375c-4.65625-2.894531-10.28125-3.792969-15.609375-2.488281-10.425781 2.546875-93.472656 22.832031-106.402344 25.992188-3.464843.84375-6.644531 2.582031-9.226562 5.042968l-57.472657 54.722656c-3.511718 3.34375-5.714843 7.824219-6.222656 12.644532l-8.269531 78.742187c-1.265625 12.027344 8.160156 22.535157 20.3125 22.535157 10.3125 0 19.167969-7.792969 20.269531-18.273438l7.484375-71.273438 43.882813-41.785156 30.417968 124.515625-20.964843 98.144531c-.765625 3.578126-.71875 7.277344.136719 10.832032l25.914062 107.878906c3.144531 13.085938 16.3125 21.257812 29.523438 18.085938 13.148437-3.15625 21.246093-16.375 18.085937-29.523438l-24.613281-102.476562 19.261718-90.164063 16.476563-4.023437 52.710937 78.054687c4.089844 6.058594 10.675782 9.972656 17.957032 10.667969 105.359375 10.042968 99.875 9.660156 102.113281 9.660156 12.472656 0 23.132813-9.488281 24.34375-22.152344 1.289063-13.460937-8.578125-25.417968-22.039063-26.707031zm0 0"/><path d="m163.003906 32.25c-5.542968-22.6875-28.425781-36.582031-51.109375-31.042969-22.683593 5.542969-36.582031 28.425781-31.042969 51.109375 5.542969 22.6875 28.425782 36.585938 51.113282 31.042969 22.683594-5.542969 36.582031-28.425781 31.039062-51.109375zm0 0"/><path d="m281.097656 432.269531c-19.070312-16.101562-47.582031-13.699219-63.6875 5.371094-16.101562 19.066406-13.699218 47.582031 5.371094 63.683594 19.070312 16.105469 47.582031 13.699219 63.6875-5.367188 16.101562-19.070312 13.699219-47.582031-5.371094-63.6875zm0 0"/></svg>